PathFileType	4	(X/Y/Z)	C:\Users\Basilio\Documents\Thesis Gigler\squatting_fais\c3dfiles\038\SJ_pre2\markers_experimental.trc
DataRate	CameraRate	NumFrames	NumMarkers	Units	OrigDataRate	OrigDataStartFrame	OrigNumFrames
200.000000	200.000000	4	61	mm	200.000000	927	1854
Frame#	Time	FHD			LBHD			RBHD			C7			T10			LSHO			LUUPA			LMUPA			LDUPA			LLEP			LMEP			LRAD			LUL			LRFIN			RSHO			RUPA1			RMUPA			RDUPA			RLEP			RMEP			RRAD			RUL			RUFIN			LASI			RASI			USACR			LSACR			RSACR			LTHI1			LTHI2			LTHI3			LTHI4			LLFC			LMFC			LTIB1			LTIB2			LTIB3			LTIB4			LLMAL			LMMAL			LHEE			LMT1			LMT2			LMT5			RTHI			RTHI2			RTHI3			RTHI4			RLFC			RMFC			RTIB1			RTIB2			RTIB3			RTIB4			RLMAL			RMMAL			RHEE			RMT1			RMT2			RMT5			CLAV			
		X1	Y1	Z1	X2	Y2	Z2	X3	Y3	Z3	X4	Y4	Z4	X5	Y5	Z5	X6	Y6	Z6	X7	Y7	Z7	X8	Y8	Z8	X9	Y9	Z9	X10	Y10	Z10	X11	Y11	Z11	X12	Y12	Z12	X13	Y13	Z13	X14	Y14	Z14	X15	Y15	Z15	X16	Y16	Z16	X17	Y17	Z17	X18	Y18	Z18	X19	Y19	Z19	X20	Y20	Z20	X21	Y21	Z21	X22	Y22	Z22	X23	Y23	Z23	X24	Y24	Z24	X25	Y25	Z25	X26	Y26	Z26	X27	Y27	Z27	X28	Y28	Z28	X29	Y29	Z29	X30	Y30	Z30	X31	Y31	Z31	X32	Y32	Z32	X33	Y33	Z33	X34	Y34	Z34	X35	Y35	Z35	X36	Y36	Z36	X37	Y37	Z37	X38	Y38	Z38	X39	Y39	Z39	X40	Y40	Z40	X41	Y41	Z41	X42	Y42	Z42	X43	Y43	Z43	X44	Y44	Z44	X45	Y45	Z45	X46	Y46	Z46	X47	Y47	Z47	X48	Y48	Z48	X49	Y49	Z49	X50	Y50	Z50	X51	Y51	Z51	X52	Y52	Z52	X53	Y53	Z53	X54	Y54	Z54	X55	Y55	Z55	X56	Y56	Z56	X57	Y57	Z57	X58	Y58	Z58	X59	Y59	Z59	X60	Y60	Z60	X61	Y61	Z61	

928	4.635	-104.4386672973633	1276.5673828125	-931.2696533203127	-244.5439758300782	1187.138793945313	-987.2615356445315	-229.1234741210938	1179.411987304688	-841.297058105469	-270.1008911132813	1080.126220703125	-909.238464355469	-451.8013000488282	876.3095703125002	-896.2597656250002	-163.2598114013672	1030.402587890625	-1079.399780273438	-224.3982391357422	903.2315063476565	-1272.407104492188	-219.5761718750001	857.5901489257815	-1253.998046875	-242.7970275878907	845.4873657226565	-1306.579223632813	-274.0599975585938	789.7565917968752	-1325.471557617188	-348.0124511718751	828.290466308594	-1346.717895507813	-481.3087158203126	705.3563232421876	-1122.711669921875	-433.5137634277345	651.5964965820314	-1138.8935546875	-478.4618225097657	690.0559692382814	-1045.258666992188	-142.867416381836	1019.764343261719	-764.7478027343751	-187.0781402587891	896.840515136719	-577.0791625976564	-201.2848358154297	851.3714599609377	-585.1024780273439	-213.6011047363282	854.9708251953127	-526.8436889648439	-252.1075897216797	798.0577392578127	-492.6697692871095	-321.2098693847657	842.7019653320315	-470.4554443359376	-451.8040466308595	686.9387817382814	-660.1811523437501	-401.5920410156251	634.8330688476564	-652.1461181640626	-444.9070739746095	683.0276489257814	-732.7354736328126	-454.6243286132814	660.1486206054689	-1015.891540527344	-436.0493774414064	672.9985961914064	-767.2909545898439	-574.7501831054689	772.862243652344	-882.4771728515627	-606.2009277343751	753.7269287109376	-907.5232543945315	-598.5677490234376	752.9976196289064	-850.7407226562502	-391.0935363769532	562.2898559570314	-1167.504028320313	-310.1150512695313	550.5043334960939	-1198.623413085938	-281.2853393554688	580.6388549804689	-1172.663940429688	-285.6859130859376	495.8605957031251	-1211.22021484375	-242.8042907714844	456.8765258789064	-1215.646362304688	-209.8089752197266	442.8790588378907	-1111.302734375	-239.9966888427735	280.8390197753907	-1137.8720703125	-309.3082275390626	255.6457214355469	-1188.601684570313	-275.2240905761719	241.7728118896485	-1163.910888671875	-311.0380859375001	177.1180725097657	-1120.916870117188	-439.2428283691407	82.23696136474611	-1119.34375	-389.365692138672	98.66350555419925	-1051.5517578125	-484.4505920410157	44.73334121704102	-1058.934204101563	-276.3256530761719	45.20946884155274	-1093.70068359375	-279.2098693847657	50.11497497558595	-1144.411987304688	-327.8923339843751	30.39428329467774	-1183.749267578125	-394.8298645019532	541.5825805664064	-664.9786376953126	-330.2534484863282	540.5147705078126	-648.6409912109376	-309.7775878906251	568.3280639648439	-651.7018432617189	-280.3228454589844	469.2913818359376	-649.9326171875001	-190.8234405517578	420.8845520019532	-645.6472778320314	-177.04931640625	422.1328735351564	-757.9869384765626	-207.4205169677735	260.9379272460938	-688.3411865234376	-319.4326782226563	226.6441650390626	-668.4387207031251	-276.0396423339844	209.6615142822266	-677.7965698242189	-285.9754638671876	162.0369873046875	-711.7449340820314	-404.1064453125001	87.31185913085939	-700.8587646484376	-362.8547668457032	87.84681701660158	-776.4412231445315	-462.164276123047	40.45360565185548	-773.891540527344	-250.9742736816407	47.74694824218751	-714.6892700195314	-264.5207214355469	53.33872604370119	-670.2276611328126	-316.5011901855469	35.15652084350587	-635.2521972656251	-164.0926818847657	980.4612426757815	-921.9445800781252	
929	4.64	-104.3532104492188	1276.18310546875	-931.3063964843752	-244.5771026611329	1186.953247070313	-987.2823486328127	-229.0711822509766	1179.227294921875	-841.347351074219	-270.1015930175782	1080.019897460938	-909.2756347656252	-451.8143005371095	876.2234497070315	-896.317565917969	-163.2123718261719	1030.109252929688	-1079.512329101563	-224.3935546875001	902.866149902344	-1272.391235351563	-219.516830444336	857.1829223632815	-1253.99462890625	-242.8310241699219	845.1953125000002	-1306.573364257813	-274.0314941406251	789.3850097656252	-1325.4794921875	-348.0389709472657	828.0546875000002	-1346.773803710938	-481.3416442871095	705.2109375000001	-1122.680541992188	-433.4787902832032	651.4063110351564	-1138.911987304688	-478.5499572753907	689.9474487304689	-1045.22265625	-142.7432861328125	1019.573913574219	-764.8479003906251	-186.9508819580078	896.6585693359377	-577.1688842773439	-201.170150756836	851.135681152344	-585.1314086914064	-213.4857482910157	854.8024902343752	-526.8953857421876	-251.9214477539063	797.8396606445315	-492.7884521484376	-321.0859680175782	842.556091308594	-470.4418945312501	-451.8021850585939	686.8300170898439	-660.0931396484376	-401.5935668945314	634.7474365234376	-652.1522827148439	-444.886199951172	682.9103393554689	-732.6904296875001	-454.3994140625001	660.1215820312501	-1015.997192382813	-436.0574340820314	672.9298095703126	-767.2591552734376	-574.7822875976564	772.7980957031252	-882.4853515625002	-606.2554931640626	753.6506958007814	-907.4959106445315	-598.5562744140626	752.8413085937501	-850.700622558594	-391.1511535644532	562.2342529296876	-1167.4697265625	-310.0810852050782	550.4567871093751	-1198.613037109375	-281.2642211914063	580.6234130859376	-1172.604858398438	-285.6709594726563	495.821746826172	-1211.088623046875	-242.8267822265626	456.8741455078126	-1215.594482421875	-209.8042449951172	442.8711853027345	-1111.301879882813	-239.9414520263672	280.8069152832032	-1137.83740234375	-309.2627868652344	255.6577606201172	-1188.612182617188	-275.1955566406251	241.7238922119141	-1163.870483398438	-310.9537963867188	177.1527252197266	-1120.876831054688	-439.1362304687501	81.95689392089845	-1119.4775390625	-389.3587036132814	98.6535339355469	-1051.549438476563	-484.4648742675782	44.72256088256837	-1058.915283203125	-276.3609313964844	45.16140747070313	-1093.7275390625	-279.2197265625001	50.09983062744142	-1144.361450195313	-328.2481079101563	30.71837806701661	-1183.75634765625	-394.810516357422	541.5515747070314	-664.9592895507814	-330.2347412109376	540.4277954101564	-648.6680297851564	-309.7505493164063	568.2507934570314	-651.7618408203126	-280.2804870605469	469.2449951171876	-649.9896240234376	-190.6941833496094	420.820281982422	-645.7348632812501	-176.9654998779297	422.0875549316407	-758.1110839843751	-207.4089050292969	260.9026184082032	-688.4266357421876	-319.3986511230469	226.6550750732422	-668.4182739257814	-275.9908447265626	209.6446533203126	-677.8392944335939	-285.9606018066407	162.0401916503907	-711.7503051757814	-404.1163940429689	87.32028198242189	-700.9047241210939	-362.7878723144532	87.79274749755861	-776.422302246094	-462.2024841308595	40.47731018066407	-773.9090576171877	-250.9850006103516	47.72357940673829	-714.7271728515626	-264.5430297851563	53.36009979248048	-670.2540283203126	-316.5059509277344	35.17494583129884	-635.2590332031251	-164.0834197998047	980.3552246093752	-921.999206542969	
930	4.645	-104.2283782958985	1275.987426757813	-931.390563964844	-244.5773315429688	1186.78759765625	-987.3367919921877	-228.9358062744141	1178.9580078125	-841.4001464843752	-270.0631408691407	1079.8916015625	-909.277038574219	-451.7471618652345	876.040954589844	-896.341735839844	-163.1462554931641	1030.015625	-1079.550415039063	-224.2446289062501	902.5847167968752	-1272.376220703125	-219.3688659667969	856.8274536132815	-1254.02685546875	-242.6960144042969	844.8934326171877	-1306.576416015625	-273.8991394042969	789.1888427734377	-1325.534301757813	-347.8879089355469	827.7282714843752	-1346.820434570313	-481.363983154297	705.0438232421876	-1122.675048828125	-433.4687805175782	651.1889038085939	-1138.83349609375	-478.6135559082032	689.8153686523439	-1045.206420898438	-142.6856842041016	1019.420654296875	-765.0049438476564	-186.758041381836	896.4586181640627	-577.3438110351564	-201.0655670166016	850.939636230469	-585.1977539062501	-213.3691864013672	854.5667114257815	-526.9673461914064	-251.734848022461	797.5481567382815	-492.8824462890626	-320.9690551757813	842.4099731445315	-470.474578857422	-451.7548828125001	686.7810058593751	-660.0563964843751	-401.5913696289064	634.6964721679689	-652.1610717773439	-444.9859008789064	682.8601684570314	-732.6654052734376	-454.5188293457032	660.0122070312501	-1015.982604980469	-436.0067443847657	672.8365478515626	-767.2450561523439	-574.7835693359376	772.6631469726565	-882.4819946289065	-606.3360595703126	753.6352539062501	-907.5007324218752	-598.5815429687501	752.7955932617189	-850.6749267578127	-391.1733703613282	562.1356811523439	-1167.466674804688	-310.1422729492188	550.4286499023439	-1198.5869140625	-281.3170471191407	580.5933227539064	-1172.585815429688	-285.7418212890626	495.8069458007814	-1211.109741210938	-242.8025817871094	456.8447265625001	-1215.586181640625	-209.7693176269532	442.8071594238282	-1111.243041992188	-239.9409179687501	280.8422241210938	-1137.8662109375	-309.2666320800782	255.6503906250001	-1188.563598632813	-275.1925659179688	241.7290191650391	-1163.847900390625	-310.9746398925782	177.1544647216797	-1120.918334960938	-439.1145019531251	81.97093963623048	-1119.442749023438	-389.363739013672	98.66296386718753	-1051.55322265625	-484.3428344726564	44.65079879760743	-1058.955444335938	-276.3135681152344	45.27877426147462	-1093.71240234375	-279.2803039550782	50.04795837402345	-1144.335083007813	-328.2566528320313	30.73746871948243	-1183.751098632813	-394.7922973632814	541.4491577148439	-665.0247802734376	-330.1732788085938	540.3334350585939	-648.6715087890626	-309.6735534667969	568.1651000976564	-651.8132324218751	-280.2439270019532	469.2036743164064	-649.9644775390626	-190.6605529785157	420.8317260742189	-645.7831420898439	-176.9118347167969	422.0751342773439	-758.1743164062501	-207.3352355957032	260.8954772949219	-688.4398803710939	-319.3788146972657	226.631332397461	-668.3964843750001	-275.9415283203126	209.6019134521485	-677.8239746093751	-285.8912048339844	162.014877319336	-711.7629394531251	-404.0592651367189	87.32418060302736	-700.8671875000001	-362.5294189453126	87.61465454101564	-776.3221435546877	-462.2153625488282	40.46199798583985	-773.8994750976565	-250.8753204345704	48.03025436401369	-714.7745971679689	-264.5187377929688	53.34235000610353	-670.2396850585939	-316.4801330566407	35.16729354858399	-635.2677612304689	-164.0301055908203	980.2396240234377	-922.0359497070315	
931	4.65	-104.1370620727539	1275.72314453125	-931.4123535156252	-244.5093536376954	1186.570922851563	-987.4271240234377	-228.7870330810547	1178.861206054688	-841.6660156250002	-270.0703735351563	1079.748413085938	-909.326843261719	-451.7383117675782	875.952087402344	-896.3265380859377	-163.1219787597657	1029.847412109375	-1079.613403320313	-224.0655212402344	902.312683105469	-1272.439453125	-219.3099212646485	856.6209716796877	-1253.94580078125	-242.5701141357422	844.5919189453127	-1306.586303710938	-273.9470214843751	788.8767089843752	-1325.488037109375	-347.8859558105469	827.4467773437502	-1346.8447265625	-481.4484863281251	704.8855590820314	-1122.716796875	-433.545379638672	650.9788818359376	-1138.748168945313	-478.6832580566407	689.7041015625001	-1045.145629882813	-142.5785675048828	1019.20703125	-765.1031494140626	-186.6424713134766	896.151794433594	-577.5003051757814	-200.949935913086	850.701110839844	-585.3263549804689	-213.2147674560547	854.2661743164065	-527.0462646484376	-251.6230468750001	797.3792114257815	-492.9332275390626	-320.8169860839844	842.2818603515627	-470.4530334472657	-451.7481079101564	686.6950683593751	-660.0144042968751	-401.6209716796876	634.6100463867189	-652.1181030273439	-445.0466613769532	682.8381958007814	-732.6831054687501	-454.5642395019532	659.9307250976564	-1015.882629394531	-436.023651123047	672.7789916992189	-767.2702636718751	-574.8078613281251	772.5773925781252	-882.4649047851565	-606.3269042968751	753.5087280273439	-907.4268188476565	-598.6395263671876	752.7282714843751	-850.6402587890627	-391.1666564941407	562.0687866210939	-1167.408813476563	-310.0962829589844	550.3632812500001	-1198.520874023438	-281.3538818359376	580.5913085937501	-1172.52783203125	-285.7691345214844	495.7661437988282	-1211.016357421875	-242.8498992919922	456.8162841796876	-1215.571655273438	-209.7763977050782	442.819549560547	-1111.24462890625	-239.9580078125001	280.8273010253907	-1137.833618164063	-309.2795104980469	255.6767578125001	-1188.531494140625	-275.1580505371094	241.7517395019532	-1163.855590820313	-310.9698181152344	177.1805114746094	-1120.872924804688	-439.2156066894532	82.23533630371095	-1119.3701171875	-389.3453369140626	98.63861083984378	-1051.522094726563	-484.5048828125001	44.75757217407227	-1058.862915039063	-276.2894897460938	45.24848937988282	-1093.664672851563	-279.2149047851563	50.12533569335939	-1144.3896484375	-327.8456726074219	30.38821029663087	-1183.711669921875	-394.7652282714845	541.4005126953126	-665.0128173828126	-330.1671447753907	540.2736816406251	-648.6928710937501	-309.6686401367188	568.1164550781251	-651.8286132812501	-280.1947326660157	469.1763000488282	-650.0168457031251	-190.3445892333985	421.0097045898439	-645.7004394531251	-176.9562377929688	421.986541748047	-758.2700195312501	-207.3199310302735	260.8798828125001	-688.4505004882814	-319.3043212890626	226.6443328857422	-668.3919677734376	-275.9194641113282	209.6148223876954	-677.8771972656251	-285.8781738281251	161.971176147461	-711.8099975585939	-404.067840576172	87.33287811279298	-700.8986206054689	-362.8888244628907	87.7735061645508	-776.4478759765627	-461.8661499023439	40.69057846069337	-773.669860839844	-250.9252014160157	47.9758644104004	-714.8506469726564	-264.5235290527344	53.38112640380861	-670.2205200195314	-316.4736938476563	35.16479492187501	-635.2560424804689	-164.0114440917969	980.047058105469	-922.1023559570315	
